<?xml version="1.0" encoding="utf-8"?>
<!-- Generator: Adobe Illustrator 23.0.1, SVG Export Plug-In . SVG Version: 6.00 Build 0)  -->
<svg version="1.1" xmlns="http://www.w3.org/2000/svg" xmlns:xlink="http://www.w3.org/1999/xlink" x="0px" y="0px"
	 viewBox="0 0 1000 1000" style="enable-background:new 0 0 1000 1000;" xml:space="preserve">
<style type="text/css">
	.st0{fill:#FFFFFF;}
</style>
<g id="color">
</g>
<g id="outline">
	<g>
		<path class="st0" d="M643.12,321.84l-17.06,3.25c-2.65,0.5-65.12,12.74-80.56,44.74c-7.66,15.86-1.66,60.89,4.68,108.57
			c2.76,20.72,5.37,40.29,6.55,55.85c0.86,11.3,0.73,17.99,0.32,21.94c-0.18,1.76-2.31,2.55-3.6,1.33
			c-4.69-4.45-13.6-14.28-29.79-35.96c-17.63-23.61-38.53-54.09-58.86-85.82c-47.46-74.12-77.26-132.07-75.92-147.64l0.06-0.72
			l-0.15-0.72c-0.24-1.15-0.45-2.31-0.63-3.44l-0.55-3.43c-0.22-1.33-1.59-2.14-2.86-1.67l-3.26,1.2
			c-6.83,2.52-24.37,9.2-39.86,16.72c-22.45,10.9-31.39,18.96-29.59,26.77c0.46,6.65,5.65,82.37,9.22,159.52
			c6.43,139.16,2.18,166.67,0.13,171.99c-0.18,0.46-0.44,0.88-0.75,1.26l-6.25,7.67c-1.38,1.69,0.35,4.12,2.39,3.37l9.79-3.59
			c18.65-6.83,79.42-31.51,78.43-62.19c-0.65-20.16-3.02-65.25-4.58-94.09c-0.11-2.16,2.69-3.11,3.91-1.32
			c11.26,16.5,27.89,40.17,45.59,63.01c58.1,74.96,78.61,78.27,88.77,73.31c0.11-0.05,0.2-0.09,0.32-0.12
			c7.38-2.11,64.82-19.77,83.57-62.63c20.5-46.86,1.59-142.8-4.7-171.08c-5.11-23.02-6.5-63.35,11.58-73.57l15.12-8.54
			C646.69,324.61,645.5,321.38,643.12,321.84z M613.42,575c-17.69,40.43-77.13,57.01-77.73,57.17l-0.57,0.16l-0.52,0.29
			c-2.61,1.42-18.58,4.77-76.74-70.27c-31.38-40.48-59.38-83.64-59.66-84.07l-5.86-9.04c-1.19-1.85-4.06-0.91-3.94,1.28l0.61,10.76
			c0.05,0.89,5.01,89.3,5.99,119.88c0.56,17.42-32.55,36.14-59.05,47.4c-1.51,0.64-3.15-0.58-2.97-2.21
			c2.11-18.48,3.02-61-1.67-163.02c-3.72-81.01-9.27-160.88-9.32-161.68l-0.04-0.57l-0.05-0.17c0.46-1.04,3.84-6.32,26.75-17.15
			c9.79-4.62,20.16-8.85,27.73-11.8c1.26-0.49,2.67,0.29,2.88,1.63c4.89,30.88,51.38,106.94,72.32,140
			c35.8,56.53,81.16,120.81,98.59,134.3c2.55,1.97,5.94,4.08,9.49,2.82c11.26-3.97,9.06-28.83,0.44-93.63
			c-5.33-39.98-11.95-89.74-5.6-102.91c8.19-16.96,34.03-27.9,52.74-33.81c1.75-0.55,3.31,1.19,2.61,2.87
			c-10.66,25.6-2.2,64.74-1.73,66.85C614.24,437.62,632.71,530.91,613.42,575z"/>
		<path class="st0" d="M613.42,575c-17.69,40.43-77.13,57.01-77.73,57.17l-0.57,0.16l-0.52,0.29c-2.61,1.42-18.58,4.77-76.74-70.27
			c-31.38-40.48-59.38-83.64-59.66-84.07l-5.86-9.04c-1.19-1.85-4.06-0.91-3.94,1.28l0.61,10.76c0.05,0.89,5.01,89.3,5.99,119.88
			c0.56,17.42-32.55,36.14-59.05,47.4c-1.51,0.64-3.15-0.58-2.97-2.21c2.11-18.48,3.02-61-1.67-163.02
			c-3.72-81.01-9.27-160.88-9.32-161.68l-0.04-0.57l-0.05-0.17c0.46-1.04,3.84-6.32,26.75-17.15c9.79-4.62,20.16-8.85,27.73-11.8
			c1.26-0.49,2.67,0.29,2.88,1.63c4.89,30.88,51.38,106.94,72.32,140c35.8,56.53,81.16,120.81,98.59,134.3
			c2.55,1.97,5.94,4.08,9.49,2.82c11.26-3.97,9.06-28.83,0.44-93.63c-5.33-39.98-11.95-89.74-5.6-102.91
			c8.19-16.96,34.03-27.9,52.74-33.81c1.75-0.55,3.31,1.19,2.61,2.87c-10.66,25.6-2.2,64.74-1.73,66.85
			C614.24,437.62,632.71,530.91,613.42,575z"/>
	</g>
	<path class="st0" d="M565,220c0,0-43,19-48,27s6,65,24,63s56-18,57-34S576,215,565,220z"/>
</g>
</svg>
